<svg xmlns="http://www.w3.org/2000/svg" width="390.5" height="62.994" viewBox="0 0 390.5 62.994">
  <g id="Group_6003" data-name="Group 6003" transform="translate(-980.5 220.55)">
    <g id="Group_5236" data-name="Group 5236" transform="translate(1065.801 -220.427)">
      <rect id="Rectangle_26747" data-name="Rectangle 26747" width="5.646" height="62.107" transform="translate(0.009 0.181)" fill="#f26611"/>
      <path id="Path_1231" data-name="Path 1231" d="M139.067,221.423l-5.646-6.361v29.693l5.646-6.361Z" transform="translate(-122.103 -195.446)" fill="#f26611"/>
      <path id="Path_1232" data-name="Path 1232" d="M133.421,244.8h5.646V233.962l-5.646,6.361Z" transform="translate(-122.103 -182.509)" fill="#f26611"/>
      <path id="Path_1233" data-name="Path 1233" d="M156.919,256.338l5.646,6.361V207.487l-5.646,6.361Z" transform="translate(-106.019 -200.63)" fill="#f26611"/>
      <path id="Path_1234" data-name="Path 1234" d="M166.115,214.719v-8.505l-22.631,25.5,3.774,4.252Z" transform="translate(-115.215 -201.502)" fill="#f26611"/>
      <path id="Path_1235" data-name="Path 1235" d="M133.421,235.274v8.505l5.646-6.361v-8.5Z" transform="translate(-122.103 -185.965)" fill="#f26611"/>
      <path id="Path_1236" data-name="Path 1236" d="M162.565,210.2v-6.676h-1.623l-4.023,4.532v8.505Z" transform="translate(-106.019 -203.343)" fill="#f26611"/>
      <path id="Path_1237" data-name="Path 1237" d="M144.3,230.779l3.774-4.252-11.306-12.738v8.5Z" transform="translate(-119.809 -196.317)" fill="#f26611"/>
      <path id="Path_1238" data-name="Path 1238" d="M139.067,216.374l-5.646-6.361v8.5l5.646,6.361Z" transform="translate(-122.103 -198.901)" fill="#f26611"/>
      <path id="Path_1239" data-name="Path 1239" d="M156.919,243.068h5.646v-.219l-5.646-6.361Z" transform="translate(-106.019 -180.78)" fill="#f26611"/>
      <path id="Path_1240" data-name="Path 1240" d="M145.018,221.351l-3.774,4.253,3.774,4.252,3.774-4.252Z" transform="translate(-116.749 -191.141)" fill="#f26611"/>
      <g id="Group_5234" data-name="Group 5234" transform="translate(39.591 28.103)">
        <path id="Path_1241" data-name="Path 1241" d="M150.205,226.461v27.824h5.646V220.1Z" transform="translate(-150.205 -220.1)" fill="#f26611"/>
      </g>
      <rect id="Rectangle_26748" data-name="Rectangle 26748" width="16.964" height="5.646" transform="translate(16.964 62.288) rotate(180)" fill="#f26611"/>
      <rect id="Rectangle_26749" data-name="Rectangle 26749" width="16.964" height="5.646" transform="translate(56.55 62.288) rotate(180)" fill="#f26611"/>
      <g id="Group_5235" data-name="Group 5235" transform="translate(8.803 0)">
        <path id="Path_1242" data-name="Path 1242" d="M142.452,206.768H134.9l10.71,12.067,3.774-4.253Z" transform="translate(-129.892 -201.122)" fill="#f26611"/>
        <path id="Path_1243" data-name="Path 1243" d="M157.826,206.876h-7.549l-6.775,7.634,3.774,4.252Z" transform="translate(-124.006 -201.049)" fill="#f26611"/>
        <path id="Path_1244" data-name="Path 1244" d="M145.035,211.407l-3.774,4.252,3.774,4.253,3.774-4.253Z" transform="translate(-125.54 -197.947)" fill="#f26611"/>
        <path id="Path_1245" data-name="Path 1245" d="M139.477,203.417h-7.549l5.011,5.646h7.549Z" transform="translate(-131.928 -203.417)" fill="#f26611"/>
        <path id="Path_1246" data-name="Path 1246" d="M160.084,203.524h-7.549l-5.011,5.646h7.549Z" transform="translate(-121.253 -203.343)" fill="#f26611"/>
      </g>
      <rect id="Rectangle_26750" data-name="Rectangle 26750" width="15.908" height="5.646" transform="translate(0.009)" fill="#f26611"/>
    </g>
    <g id="Group_5239" data-name="Group 5239" transform="translate(1150.581 -220.427)">
      <rect id="Rectangle_26751" data-name="Rectangle 26751" width="5.646" height="62.107" transform="translate(0.009 0.181)" fill="#fff"/>
      <path id="Path_1247" data-name="Path 1247" d="M189.4,221.423l-5.646-6.361v29.693l5.646-6.361Z" transform="translate(-172.433 -195.446)" fill="#fff"/>
      <path id="Path_1248" data-name="Path 1248" d="M183.751,244.8H189.4V233.962l-5.646,6.361Z" transform="translate(-172.433 -182.509)" fill="#fff"/>
      <path id="Path_1249" data-name="Path 1249" d="M207.249,256.338l5.646,6.361V207.487l-5.646,6.361Z" transform="translate(-156.349 -200.63)" fill="#fff"/>
      <path id="Path_1250" data-name="Path 1250" d="M216.445,214.719v-8.505l-22.631,25.5,3.774,4.252Z" transform="translate(-165.545 -201.502)" fill="#fff"/>
      <path id="Path_1251" data-name="Path 1251" d="M183.751,235.274v8.505l5.646-6.361v-8.5Z" transform="translate(-172.433 -185.965)" fill="#fff"/>
      <path id="Path_1252" data-name="Path 1252" d="M212.895,210.2v-6.676h-1.623l-4.022,4.532v8.505Z" transform="translate(-156.349 -203.343)" fill="#fff"/>
      <path id="Path_1253" data-name="Path 1253" d="M194.634,230.779l3.774-4.252L187.1,213.789v8.5Z" transform="translate(-170.139 -196.317)" fill="#fff"/>
      <path id="Path_1254" data-name="Path 1254" d="M189.4,216.374l-5.646-6.361v8.5l5.646,6.361Z" transform="translate(-172.433 -198.901)" fill="#fff"/>
      <path id="Path_1255" data-name="Path 1255" d="M207.249,243.068h5.646v-.219l-5.646-6.361Z" transform="translate(-156.349 -180.78)" fill="#fff"/>
      <path id="Path_1256" data-name="Path 1256" d="M195.348,221.351l-3.774,4.253,3.774,4.252,3.774-4.252Z" transform="translate(-167.079 -191.141)" fill="#fff"/>
      <g id="Group_5237" data-name="Group 5237" transform="translate(39.591 28.103)">
        <path id="Path_1257" data-name="Path 1257" d="M200.535,226.461v27.824h5.646V220.1Z" transform="translate(-200.535 -220.1)" fill="#fff"/>
      </g>
      <rect id="Rectangle_26752" data-name="Rectangle 26752" width="16.964" height="5.646" transform="translate(16.964 62.288) rotate(180)" fill="#fff"/>
      <rect id="Rectangle_26753" data-name="Rectangle 26753" width="16.964" height="5.646" transform="translate(56.55 62.288) rotate(180)" fill="#fff"/>
      <g id="Group_5238" data-name="Group 5238" transform="translate(8.803 0)">
        <path id="Path_1258" data-name="Path 1258" d="M192.782,206.768h-7.549l10.71,12.067,3.774-4.253Z" transform="translate(-180.222 -201.122)" fill="#fff"/>
        <path id="Path_1259" data-name="Path 1259" d="M208.156,206.876h-7.549l-6.775,7.634,3.774,4.252Z" transform="translate(-174.336 -201.049)" fill="#fff"/>
        <path id="Path_1260" data-name="Path 1260" d="M195.366,211.407l-3.774,4.252,3.774,4.253,3.774-4.253Z" transform="translate(-175.87 -197.947)" fill="#fff"/>
        <path id="Path_1261" data-name="Path 1261" d="M189.807,203.417h-7.549l5.011,5.646h7.549Z" transform="translate(-182.258 -203.417)" fill="#fff"/>
        <path id="Path_1262" data-name="Path 1262" d="M210.414,203.524h-7.549l-5.011,5.646H205.4Z" transform="translate(-171.583 -203.343)" fill="#fff"/>
      </g>
      <rect id="Rectangle_26754" data-name="Rectangle 26754" width="15.908" height="5.646" transform="translate(0.009)" fill="#fff"/>
    </g>
    <path id="Path_1263" data-name="Path 1263" d="M139.425,203.524H99.853v62.107h39.572Zm-5.645,5.646v50.814H105.506V209.17Z" transform="translate(920.721 -423.77)" fill="#f26611"/>
    <path id="Path_1264" data-name="Path 1264" d="M123.534,210.227H106.561V249.75h16.973Zm-5.663,5.646V244.1h-5.646v-28.23Z" transform="translate(925.313 -419.182)" fill="#f26611"/>
    <g id="Group_5240" data-name="Group 5240" transform="translate(1128.016 -220.025)">
      <path id="Path_1265" data-name="Path 1265" d="M180.447,220.594v-5.646h0V209.3h0v-5.646H163.763V209.3H174.8v5.646H163.637v50.815h5.646V220.594h11.165Z" transform="translate(-163.637 -203.655)" fill="#f26611"/>
      <rect id="Rectangle_26755" data-name="Rectangle 26755" width="5.646" height="39.523" transform="translate(11.3 22.584)" fill="#f26611"/>
    </g>
    <g id="Group_5241" data-name="Group 5241" transform="translate(1308.838 -220.025)">
      <path id="Path_1266" data-name="Path 1266" d="M287.793,220.594v-5.646h0V209.3h0v-5.646H271.109V209.3h11.036v5.646H270.983v50.815h5.646V220.594h11.165Z" transform="translate(-270.983 -203.655)" fill="#fff"/>
      <rect id="Rectangle_26756" data-name="Rectangle 26756" width="5.646" height="39.523" transform="translate(11.3 22.584)" fill="#fff"/>
    </g>
    <g id="Group_5242" data-name="Group 5242" transform="translate(1212.666 -220.426)">
      <path id="Path_1267" data-name="Path 1267" d="M213.889,203.417V265.7h16.964V248.765H236.5V265.7h16.958V203.417Zm33.919,56.641H242.15V243.12H225.2v16.937h-5.655v-51h28.264Z" transform="translate(-213.889 -203.417)" fill="#fff"/>
      <path id="Path_1268" data-name="Path 1268" d="M237.561,210.227H220.6v22.586h16.963Zm-5.653,16.939h-5.646V215.873h5.646Z" transform="translate(-209.297 -198.756)" fill="#fff"/>
    </g>
    <g id="Group_5243" data-name="Group 5243" transform="translate(1331.432 -220.426)">
      <path id="Path_1269" data-name="Path 1269" d="M284.395,203.417V265.7h16.963V248.765H307V265.7h16.959V203.417Zm33.917,56.641h-5.658V243.12H295.7v16.937h-5.655v-51h28.264Z" transform="translate(-284.395 -203.417)" fill="#fff"/>
      <path id="Path_1270" data-name="Path 1270" d="M308.067,210.227H291.1v22.586h16.964Zm-5.655,16.939h-5.646V215.873h5.646Z" transform="translate(-279.803 -198.756)" fill="#fff"/>
    </g>
    <g id="Group_5247" data-name="Group 5247" transform="translate(1258.057 -220.206)">
      <rect id="Rectangle_26757" data-name="Rectangle 26757" width="5.646" height="62.107" transform="translate(39.282 0.181)" fill="#fff"/>
      <rect id="Rectangle_26758" data-name="Rectangle 26758" width="11.029" height="5.646" transform="translate(14.389 62.288) rotate(180)" fill="#fff"/>
      <g id="Group_5244" data-name="Group 5244" transform="translate(0 0.267)">
        <path id="Path_1271" data-name="Path 1271" d="M240.836,261.458h5.646V220.251l-5.646-10.307Z" transform="translate(-240.836 -199.437)" fill="#fff"/>
        <path id="Path_1272" data-name="Path 1272" d="M271.2,242.819v-5.646h-12.03l3.093,5.646Z" transform="translate(-228.288 -180.799)" fill="#fff"/>
        <path id="Path_1273" data-name="Path 1273" d="M244.187,209.825v10.506l19.478,35.561h5.755Z" transform="translate(-238.542 -199.518)" fill="#fff"/>
        <path id="Path_1274" data-name="Path 1274" d="M240.836,203.706v10.506l5.646,10.307V214.014Z" transform="translate(-240.836 -203.706)" fill="#fff"/>
        <path id="Path_1275" data-name="Path 1275" d="M261.505,237.173h-5.755l3.093,5.646H264.6Z" transform="translate(-230.627 -180.799)" fill="#fff"/>
      </g>
      <g id="Group_5245" data-name="Group 5245" transform="translate(11.18 41.665)">
        <path id="Path_1276" data-name="Path 1276" d="M247.473,248.905h5.646V238.589l-5.646-10.307Z" transform="translate(-247.473 -228.282)" fill="#fff"/>
      </g>
      <g id="Group_5246" data-name="Group 5246" transform="translate(5.597)">
        <path id="Path_1277" data-name="Path 1277" d="M263.266,203.655H257.62v30.712l5.646,10.307Z" transform="translate(-234.944 -203.475)" fill="#fff"/>
        <path id="Path_1278" data-name="Path 1278" d="M249.913,203.548h-5.755l22.676,41.4V234.44Z" transform="translate(-244.158 -203.548)" fill="#fff"/>
        <path id="Path_1279" data-name="Path 1279" d="M257.62,221.887v10.506l5.646,10.307V232.194Z" transform="translate(-234.944 -190.995)" fill="#fff"/>
      </g>
    </g>
    <path id="Union_1" data-name="Union 1" d="M0,61.994V0H22.6V5.5H5.5v51H28.115V50.516H11.305V11.1h16.81V0h5.5V16.592H16.8V45.019H33.612V61.957H29.8v.037Z" transform="translate(981 -220.05)" fill="#f26611" stroke="rgba(0,0,0,0)" stroke-miterlimit="10" stroke-width="1"/>
  </g>
</svg>
