<svg xmlns="http://www.w3.org/2000/svg" width="178.8" height="28.658" viewBox="0 0 178.8 28.658">
  <g id="Group_5920" data-name="Group 5920" transform="translate(-76.36 -203.417)">
    <g id="Group_5236" data-name="Group 5236" transform="translate(115.238 203.417)">
      <rect id="Rectangle_26747" data-name="Rectangle 26747" width="2.588" height="28.474" transform="translate(0.004 0.083)" fill="#f26611"/>
      <path id="Path_1231" data-name="Path 1231" d="M136.009,217.978l-2.588-2.916v13.613l2.588-2.916Z" transform="translate(-128.232 -206.069)" fill="#f26611"/>
      <path id="Path_1232" data-name="Path 1232" d="M133.421,238.929h2.588v-4.967l-2.588,2.916Z" transform="translate(-128.232 -210.373)" fill="#f26611"/>
      <path id="Path_1233" data-name="Path 1233" d="M156.919,229.883l2.588,2.916V207.487l-2.588,2.916Z" transform="translate(-133.583 -204.344)" fill="#f26611"/>
      <path id="Path_1234" data-name="Path 1234" d="M153.859,210.114v-3.9L143.484,217.9l1.73,1.95Z" transform="translate(-130.524 -204.054)" fill="#f26611"/>
      <path id="Path_1235" data-name="Path 1235" d="M133.421,231.829v3.9l2.588-2.916v-3.9Z" transform="translate(-128.232 -209.223)" fill="#f26611"/>
      <path id="Path_1236" data-name="Path 1236" d="M159.507,206.585v-3.061h-.744l-1.844,2.078v3.9Z" transform="translate(-133.583 -203.441)" fill="#f26611"/>
      <path id="Path_1237" data-name="Path 1237" d="M140.225,221.578l1.73-1.95-5.183-5.84v3.9Z" transform="translate(-128.995 -205.779)" fill="#f26611"/>
      <path id="Path_1238" data-name="Path 1238" d="M136.009,212.929l-2.588-2.916v3.9l2.588,2.916Z" transform="translate(-128.232 -204.919)" fill="#f26611"/>
      <path id="Path_1239" data-name="Path 1239" d="M156.919,239.5h2.588v-.1l-2.588-2.916Z" transform="translate(-133.583 -210.948)" fill="#f26611"/>
      <path id="Path_1240" data-name="Path 1240" d="M142.974,221.351l-1.73,1.95,1.73,1.95,1.73-1.95Z" transform="translate(-130.014 -207.501)" fill="#f26611"/>
      <g id="Group_5234" data-name="Group 5234" transform="translate(18.151 12.884)">
        <path id="Path_1241" data-name="Path 1241" d="M150.205,223.016v12.756h2.588V220.1Z" transform="translate(-150.205 -220.1)" fill="#f26611"/>
      </g>
      <rect id="Rectangle_26748" data-name="Rectangle 26748" width="7.777" height="2.589" transform="translate(7.777 28.556) rotate(180)" fill="#f26611"/>
      <rect id="Rectangle_26749" data-name="Rectangle 26749" width="7.777" height="2.589" transform="translate(25.926 28.556) rotate(180)" fill="#f26611"/>
      <g id="Group_5235" data-name="Group 5235" transform="translate(4.036 0)">
        <path id="Path_1242" data-name="Path 1242" d="M138.364,206.768H134.9l4.91,5.532,1.73-1.95Z" transform="translate(-132.606 -204.18)" fill="#f26611"/>
        <path id="Path_1243" data-name="Path 1243" d="M150.069,206.876h-3.461l-3.106,3.5,1.73,1.95Z" transform="translate(-134.564 -204.204)" fill="#f26611"/>
        <path id="Path_1244" data-name="Path 1244" d="M142.991,211.407l-1.73,1.95,1.73,1.95,1.73-1.95Z" transform="translate(-134.053 -205.236)" fill="#f26611"/>
        <path id="Path_1245" data-name="Path 1245" d="M135.389,203.417h-3.461l2.3,2.588h3.461Z" transform="translate(-131.928 -203.417)" fill="#f26611"/>
        <path id="Path_1246" data-name="Path 1246" d="M153.282,203.524h-3.461l-2.3,2.589h3.461Z" transform="translate(-135.48 -203.441)" fill="#f26611"/>
      </g>
      <rect id="Rectangle_26750" data-name="Rectangle 26750" width="7.293" height="2.589" transform="translate(0.004)" fill="#f26611"/>
    </g>
    <g id="Group_5239" data-name="Group 5239" transform="translate(154.106 203.417)">
      <rect id="Rectangle_26751" data-name="Rectangle 26751" width="2.588" height="28.474" transform="translate(0.004 0.083)" fill="#0053a2"/>
      <path id="Path_1247" data-name="Path 1247" d="M186.34,217.978l-2.588-2.916v13.613l2.588-2.916Z" transform="translate(-178.562 -206.069)" fill="#0053a2"/>
      <path id="Path_1248" data-name="Path 1248" d="M183.751,238.929h2.588v-4.967l-2.588,2.916Z" transform="translate(-178.562 -210.373)" fill="#0053a2"/>
      <path id="Path_1249" data-name="Path 1249" d="M207.249,229.883l2.588,2.916V207.487l-2.588,2.916Z" transform="translate(-183.914 -204.344)" fill="#0053a2"/>
      <path id="Path_1250" data-name="Path 1250" d="M204.19,210.114v-3.9L193.814,217.9l1.73,1.95Z" transform="translate(-180.854 -204.054)" fill="#0053a2"/>
      <path id="Path_1251" data-name="Path 1251" d="M183.751,231.829v3.9l2.588-2.916v-3.9Z" transform="translate(-178.562 -209.223)" fill="#0053a2"/>
      <path id="Path_1252" data-name="Path 1252" d="M209.837,206.585v-3.061h-.744l-1.844,2.078v3.9Z" transform="translate(-183.914 -203.441)" fill="#0053a2"/>
      <path id="Path_1253" data-name="Path 1253" d="M190.556,221.578l1.73-1.95-5.183-5.84v3.9Z" transform="translate(-179.326 -205.779)" fill="#0053a2"/>
      <path id="Path_1254" data-name="Path 1254" d="M186.34,212.929l-2.588-2.916v3.9l2.588,2.916Z" transform="translate(-178.562 -204.919)" fill="#0053a2"/>
      <path id="Path_1255" data-name="Path 1255" d="M207.249,239.5h2.588v-.1l-2.588-2.916Z" transform="translate(-183.914 -210.948)" fill="#0053a2"/>
      <path id="Path_1256" data-name="Path 1256" d="M193.3,221.351l-1.73,1.95,1.73,1.95,1.73-1.95Z" transform="translate(-180.344 -207.501)" fill="#0053a2"/>
      <g id="Group_5237" data-name="Group 5237" transform="translate(18.151 12.884)">
        <path id="Path_1257" data-name="Path 1257" d="M200.535,223.016v12.756h2.588V220.1Z" transform="translate(-200.535 -220.1)" fill="#0053a2"/>
      </g>
      <rect id="Rectangle_26752" data-name="Rectangle 26752" width="7.777" height="2.589" transform="translate(7.777 28.556) rotate(180)" fill="#0053a2"/>
      <rect id="Rectangle_26753" data-name="Rectangle 26753" width="7.777" height="2.589" transform="translate(25.926 28.556) rotate(180)" fill="#0053a2"/>
      <g id="Group_5238" data-name="Group 5238" transform="translate(4.036 0)">
        <path id="Path_1258" data-name="Path 1258" d="M188.694,206.768h-3.461l4.91,5.532,1.73-1.95Z" transform="translate(-182.936 -204.18)" fill="#0053a2"/>
        <path id="Path_1259" data-name="Path 1259" d="M200.4,206.876h-3.461l-3.106,3.5,1.73,1.95Z" transform="translate(-184.894 -204.204)" fill="#0053a2"/>
        <path id="Path_1260" data-name="Path 1260" d="M193.322,211.407l-1.73,1.95,1.73,1.95,1.73-1.95Z" transform="translate(-184.384 -205.236)" fill="#0053a2"/>
        <path id="Path_1261" data-name="Path 1261" d="M185.719,203.417h-3.461l2.3,2.588h3.461Z" transform="translate(-182.258 -203.417)" fill="#0053a2"/>
        <path id="Path_1262" data-name="Path 1262" d="M203.612,203.524h-3.461l-2.3,2.589h3.461Z" transform="translate(-185.81 -203.441)" fill="#0053a2"/>
      </g>
      <rect id="Rectangle_26754" data-name="Rectangle 26754" width="7.293" height="2.589" transform="translate(0.004)" fill="#0053a2"/>
    </g>
    <path id="Path_1263" data-name="Path 1263" d="M118,203.524H99.853V232H118Zm-2.588,2.589v23.3H102.445v-23.3Z" transform="translate(-5.35 -0.024)" fill="#f26611"/>
    <path id="Path_1264" data-name="Path 1264" d="M114.342,210.227h-7.781v18.12h7.781Zm-2.6,2.589v12.942h-2.589V212.816Z" transform="translate(-6.878 -1.551)" fill="#f26611"/>
    <g id="Group_5240" data-name="Group 5240" transform="translate(143.761 203.601)">
      <path id="Path_1265" data-name="Path 1265" d="M171.344,211.421v-2.589h0v-2.588h0v-2.589h-7.649v2.589h5.06v2.588h-5.118v23.3h2.589V211.421h5.119Z" transform="translate(-163.637 -203.655)" fill="#f26611"/>
      <rect id="Rectangle_26755" data-name="Rectangle 26755" width="2.589" height="18.12" transform="translate(5.181 10.354)" fill="#f26611"/>
    </g>
    <g id="Group_5241" data-name="Group 5241" transform="translate(226.661 203.601)">
      <path id="Path_1266" data-name="Path 1266" d="M278.69,211.421v-2.589h0v-2.588h0v-2.589h-7.649v2.589h5.06v2.588h-5.118v23.3h2.589V211.421h5.119Z" transform="translate(-270.983 -203.655)" fill="#0053a2"/>
      <rect id="Rectangle_26756" data-name="Rectangle 26756" width="2.589" height="18.12" transform="translate(5.181 10.354)" fill="#0053a2"/>
    </g>
    <g id="Group_5242" data-name="Group 5242" transform="translate(182.569 203.417)">
      <path id="Path_1267" data-name="Path 1267" d="M213.889,203.417v28.556h7.778v-7.766h2.589v7.766h7.774V203.417Zm15.55,25.968h-2.594v-7.765h-7.771v7.765h-2.592V206h12.958Z" transform="translate(-213.889 -203.417)" fill="#0053a2"/>
      <path id="Path_1268" data-name="Path 1268" d="M228.375,210.227H220.6v10.355h7.777Zm-2.592,7.766h-2.589v-5.177h2.589Z" transform="translate(-215.417 -204.968)" fill="#0053a2"/>
    </g>
    <g id="Group_5243" data-name="Group 5243" transform="translate(237.019 203.417)">
      <path id="Path_1269" data-name="Path 1269" d="M284.395,203.417v28.556h7.777v-7.766h2.589v7.766h7.775V203.417Zm15.55,25.968h-2.594v-7.765h-7.771v7.765h-2.593V206h12.958Z" transform="translate(-284.395 -203.417)" fill="#0053a2"/>
      <path id="Path_1270" data-name="Path 1270" d="M298.881,210.227H291.1v10.355h7.778Zm-2.593,7.766H293.7v-5.177h2.589Z" transform="translate(-285.923 -204.968)" fill="#0053a2"/>
    </g>
    <g id="Group_5247" data-name="Group 5247" transform="translate(203.38 203.518)">
      <rect id="Rectangle_26757" data-name="Rectangle 26757" width="2.588" height="28.474" transform="translate(18.009 0.083)" fill="#0053a2"/>
      <rect id="Rectangle_26758" data-name="Rectangle 26758" width="5.057" height="2.589" transform="translate(6.597 28.556) rotate(180)" fill="#0053a2"/>
      <g id="Group_5244" data-name="Group 5244" transform="translate(0 0.122)">
        <path id="Path_1271" data-name="Path 1271" d="M240.836,233.561h2.588V214.669l-2.588-4.725Z" transform="translate(-240.836 -205.127)" fill="#0053a2"/>
        <path id="Path_1272" data-name="Path 1272" d="M264.682,239.762v-2.589h-5.515l1.418,2.589Z" transform="translate(-245.01 -211.328)" fill="#0053a2"/>
        <path id="Path_1273" data-name="Path 1273" d="M244.187,209.825v4.817l8.93,16.3h2.638Z" transform="translate(-241.599 -205.1)" fill="#0053a2"/>
        <path id="Path_1274" data-name="Path 1274" d="M240.836,203.706v4.817l2.588,4.725v-4.817Z" transform="translate(-240.836 -203.706)" fill="#0053a2"/>
        <path id="Path_1275" data-name="Path 1275" d="M258.389,237.173h-2.638l1.418,2.589h2.638Z" transform="translate(-244.232 -211.328)" fill="#0053a2"/>
      </g>
      <g id="Group_5245" data-name="Group 5245" transform="translate(5.126 19.102)">
        <path id="Path_1276" data-name="Path 1276" d="M247.473,237.737h2.588v-4.729l-2.588-4.725Z" transform="translate(-247.473 -228.282)" fill="#0053a2"/>
      </g>
      <g id="Group_5246" data-name="Group 5246" transform="translate(2.566)">
        <path id="Path_1277" data-name="Path 1277" d="M260.208,203.655H257.62v14.08l2.588,4.725Z" transform="translate(-247.224 -203.572)" fill="#0053a2"/>
        <path id="Path_1278" data-name="Path 1278" d="M246.8,203.548h-2.638l10.4,18.98v-4.817Z" transform="translate(-244.158 -203.548)" fill="#0053a2"/>
        <path id="Path_1279" data-name="Path 1279" d="M257.62,221.887V226.7l2.588,4.725v-4.817Z" transform="translate(-247.224 -207.724)" fill="#0053a2"/>
      </g>
    </g>
    <rect id="Rectangle_26759" data-name="Rectangle 26759" width="2.52" height="2.52" transform="translate(89.249 229.475)" fill="#f26611"/>
    <rect id="Rectangle_26760" data-name="Rectangle 26760" width="8.969" height="2.52" transform="translate(82.8 224.229)" fill="#f26611"/>
    <rect id="Rectangle_26761" data-name="Rectangle 26761" width="2.52" height="6.506" transform="translate(89.249 224.229)" fill="#f26611"/>
    <rect id="Rectangle_26762" data-name="Rectangle 26762" width="2.52" height="16.494" transform="translate(81.542 210.255)" fill="#f26611"/>
    <rect id="Rectangle_26763" data-name="Rectangle 26763" width="8.967" height="2.52" transform="translate(81.542 208.676)" fill="#f26611"/>
    <rect id="Rectangle_26764" data-name="Rectangle 26764" width="2.52" height="2.52" transform="translate(89.249 208.676)" fill="#f26611"/>
    <rect id="Rectangle_26765" data-name="Rectangle 26765" width="2.52" height="6.82" transform="translate(89.249 203.59)" fill="#f26611"/>
    <rect id="Rectangle_26766" data-name="Rectangle 26766" width="8.514" height="2.52" transform="translate(78.208 203.59)" fill="#f26611"/>
    <rect id="Rectangle_26767" data-name="Rectangle 26767" width="2.52" height="26.599" transform="translate(76.36 203.59)" fill="#f26611"/>
    <rect id="Rectangle_26768" data-name="Rectangle 26768" width="13.661" height="2.52" transform="translate(76.36 229.492)" fill="#f26611"/>
  </g>
</svg>
