<svg xmlns="http://www.w3.org/2000/svg" width="21" height="21" viewBox="0 0 21 21">
  <g id="Group_5979" data-name="Group 5979" transform="translate(-311 -648)">
    <circle id="Ellipse_26" data-name="Ellipse 26" cx="10.5" cy="10.5" r="10.5" transform="translate(311 648)" fill="#f26611"/>
    <path id="noun_Heart_2102871_1_" data-name="noun_Heart_2102871 (1)" d="M12.425,6a2.548,2.548,0,0,0-1.887.855A2.548,2.548,0,0,0,8.652,6,2.775,2.775,0,0,0,6,8.879c0,2.317,4.114,5.951,4.289,6.1a.378.378,0,0,0,.494,0c.175-.149,4.294-3.666,4.294-6.109A2.775,2.775,0,0,0,12.425,6Zm-1.883,8.194C9.293,13.05,6.757,10.411,6.757,8.879a2.021,2.021,0,0,1,1.9-2.122,1.849,1.849,0,0,1,1.564.924.378.378,0,0,0,.645,0,1.849,1.849,0,0,1,1.564-.924,2.021,2.021,0,0,1,1.9,2.122C14.321,10.5,11.791,13.083,10.542,14.194Z" transform="translate(310.961 647.962)" fill="#fff"/>
  </g>
</svg>
