<svg xmlns="http://www.w3.org/2000/svg" width="25.999" height="18.785" viewBox="0 0 25.999 18.785">
  <g id="noun_Fast_Delivery_1212438" data-name="noun_Fast  Delivery_1212438" transform="translate(-1.83 -15.17)">
    <path id="Path_200" data-name="Path 200" d="M16.383,15.17H4.123A2.3,2.3,0,0,0,1.83,17.463V29.206A2.3,2.3,0,0,0,4.123,31.5H5.337a3.135,3.135,0,0,0,6.121,0H19.55a3.135,3.135,0,0,0,6.121,0h2.158V24.736a3.647,3.647,0,0,0-.491-1.829L25.99,20.573a2.841,2.841,0,0,0-2.468-1.4H18.666v-1.7A2.3,2.3,0,0,0,16.383,15.17ZM3.179,29.206V17.463a.944.944,0,0,1,.944-.944H16.383a.944.944,0,0,1,.944.944V30.142H11.46a3.135,3.135,0,0,0-6.121,0H4.126A.944.944,0,0,1,3.179,29.206ZM8.4,32.613a1.788,1.788,0,1,1,1.788-1.786A1.788,1.788,0,0,1,8.4,32.613Zm14.214,0A1.788,1.788,0,1,1,24.4,30.824,1.788,1.788,0,0,1,22.612,32.613Zm3.062-2.463a3.135,3.135,0,0,0-6.121,0h-.877V24.644h7.788V30.15Zm-2.153-9.63a1.489,1.489,0,0,1,1.284.731L25.992,23.3H18.676V20.519Z" transform="translate(0 0)"/>
    <path id="Path_201" data-name="Path 201" d="M21.062,34.589a4.535,4.535,0,1,0-4.532-4.534A4.535,4.535,0,0,0,21.062,34.589Zm0-7.718a3.186,3.186,0,1,1-3.183,3.183A3.186,3.186,0,0,1,21.062,26.871Z" transform="translate(-10.735 -7.558)"/>
    <path id="Path_202" data-name="Path 202" d="M31.354,36.825h1.387a.674.674,0,1,0,0-1.349h-.712V34.364a.674.674,0,1,0-1.349,0v1.783a.674.674,0,0,0,.674.677Z" transform="translate(-21.067 -13.524)"/>
  </g>
</svg>
