<svg xmlns="http://www.w3.org/2000/svg" width="25.999" height="16.326" viewBox="0 0 25.999 16.326">
  <path id="noun_delivery_2057282" d="M40.008,29.856l-4.7-3.866a.734.734,0,0,0-.176-.11h0a.734.734,0,0,0-.242-.051H31.769V21.574a.734.734,0,0,0-.734-.734H15.014a.734.734,0,0,0-.734.734V34.294a.734.734,0,0,0,.734.734h2.436a2.934,2.934,0,0,0,5.649,0h9.023a2.934,2.934,0,0,0,5.649,0h1.775a.734.734,0,0,0,.734-.734V30.421A.734.734,0,0,0,40.008,29.856Zm-5.869-2.568v2.047h-2.37V27.288ZM15.8,22.307H30.3V33.561H23.12a2.883,2.883,0,0,0-.11-.315.155.155,0,0,0-.044-.125,2.934,2.934,0,0,0-.249-.462l-.081-.1a2.934,2.934,0,0,0-.249-.3l-.139-.125a2.936,2.936,0,0,0-.264-.213l-.169-.11a2.934,2.934,0,0,0-.293-.161l-.183-.081a2.935,2.935,0,0,0-.352-.11l-.169-.044a2.751,2.751,0,0,0-1.1,0l-.169.044a2.935,2.935,0,0,0-.352.11l-.183.081a2.935,2.935,0,0,0-.3.161l-.161.11a2.936,2.936,0,0,0-.271.22l-.132.117a2.935,2.935,0,0,0-.271.33l-.059.073a2.935,2.935,0,0,0-.257.47.181.181,0,0,1-.037.11,2.935,2.935,0,0,0-.11.323H15.747Zm4.526,13.44a1.533,1.533,0,1,0-.051,0Zm14.672,0a1.533,1.533,0,1,0-.051,0Zm3.866-2.2H37.792a2.883,2.883,0,0,0-.11-.315.155.155,0,0,0-.044-.125,2.935,2.935,0,0,0-.249-.462l-.081-.1a2.935,2.935,0,0,0-.249-.3l-.139-.125a2.935,2.935,0,0,0-.264-.213l-.169-.11a2.932,2.932,0,0,0-.293-.161l-.183-.081a2.934,2.934,0,0,0-.352-.11l-.169-.044a2.751,2.751,0,0,0-1.1,0l-.169.044a2.934,2.934,0,0,0-.352.11l-.183.081a2.933,2.933,0,0,0-.3.161l-.161.11a2.935,2.935,0,0,0-.271.22l-.132.117a2.936,2.936,0,0,0-.271.33l-.059.073a2.935,2.935,0,0,0-.257.47.181.181,0,0,1-.037.11,2.934,2.934,0,0,0-.11.323h-.33V30.8h3.074a.734.734,0,0,0,.734-.734V28.11L38.8,30.773Z" transform="translate(-14.28 -20.84)"/>
</svg>
